<?xml version="1.0" encoding="UTF-8"?>
<svg id="Layer_2" data-name="Layer 2" xmlns="http://www.w3.org/2000/svg" viewBox="0 0 263.64 108.45">
  <defs>
    <style>
      .cls-1 {
        fill: #010101;
      }
    </style>
  </defs>
  <g id="Layer_1-2" data-name="Layer 1">
    <g>
      <path class="cls-1" d="M61.42,50.8H0v-6.86h61.42v6.86ZM49.14,75.94c0-9.14-4.32-13.71-12.97-13.71-6.4,0-11.75,3.35-16.06,10.06-3.81,5.94-5.71,12.27-5.71,18.97v16.63l-9.37-4.91v-42.97h9.83v6.8l5.09-3.83c4.49-3.39,9.24-5.09,14.23-5.09,6.78,0,12.4,2.63,16.86,7.89,4.19,4.95,6.29,10.88,6.29,17.77,0,8.65-3.66,16.95-10.97,24.91l-11.03-6.91c3.43-3.39,6.34-6.51,8.74-9.37,3.39-4.04,5.09-9.45,5.09-16.23Z"/>
      <path class="cls-1" d="M116.39,50.8h-38.05v9.2c.15,0,.3.08.46.23.15.15.29.23.4.23-.31,0-.48-.02-.51-.06,0-.19,2.84-.8,8.51-1.83,2.09-.38,4.17-.57,6.23-.57,8.57,0,14.07,2.4,16.51,7.2,1.64,3.2,2.46,9.66,2.46,19.37v22c-.8-.31-3.83-1.54-9.08-3.71,0-1.22-.25-2-.74-2.34-2.02,1.18-3.68,2.08-4.97,2.69-4.11,1.94-8.89,2.91-14.34,2.91-7.5,0-13.29-2.36-17.37-7.09-1.98-2.29-2.97-4.84-2.97-7.66,0-3.16,1.56-6.3,4.69-9.43,6.06-6.06,13.58-9.08,22.57-9.08,5.45,0,9.83,1.26,13.14,3.77v-5.26c-1.68-2.13-3.31-3.56-4.89-4.29-1.58-.72-3.74-1.05-6.49-.97-6.13.11-11.75,1.24-16.86,3.37-2.29.95-4.51,1.81-6.69,2.57v-4.24c.49-.42,1.22-1.05,2.17-1.89.15-.19.25-.31.29-.34v-14.78h-11.71v-6.86h57.25v6.86ZM103.31,87.02c0-1.68-2-3.18-6-4.51-3.31-1.1-6.08-1.66-8.29-1.66-8.04,0-14.48,2.9-19.31,8.68-1.94,2.32-2.91,4.23-2.91,5.71.8,2.78,3.94,4.17,9.43,4.17,7.09,0,13.56-1.77,19.43-5.31,5.1-3.09,7.66-5.45,7.66-7.09Z"/>
      <path class="cls-1" d="M176.96,50.8h-61.42v-6.86h61.42v6.86ZM164.67,75.94c0-9.14-4.32-13.71-12.97-13.71-6.4,0-11.75,3.35-16.06,10.06-3.81,5.94-5.71,12.27-5.71,18.97v16.63l-9.37-4.91v-42.97h9.83v6.8l5.09-3.83c4.49-3.39,9.24-5.09,14.23-5.09,6.78,0,12.4,2.63,16.86,7.89,4.19,4.95,6.29,10.88,6.29,17.77,0,8.65-3.66,16.95-10.97,24.91l-11.03-6.91c3.43-3.39,6.34-6.51,8.74-9.37,3.39-4.04,5.09-9.45,5.09-16.23Z"/>
      <path class="cls-1" d="M241.87,50.8h-7.6v55.88l-10.4-4.46v-8.17c-6.17,7.96-12.23,11.94-18.17,11.94-3.77,0-7.89-1.58-12.34-4.74-3.81-2.7-6.97-5.87-9.48-9.48-2.97-4.27-4.44-8.42-4.4-12.46.04-3.69,2.08-7.98,6.11-12.86,4.53-5.49,10-8.23,16.4-8.23,4.08,0,8.17,1.73,12.28,5.2,1.26,1.03,4.46,4.34,9.6,9.94v-22.57h-48.91v-6.86h48.91c0-7.87-.67-14.04-2-18.49-1.98-6.62-6.4-14.49-13.26-23.62-.15-.08-.23-.38-.23-.91,0-.46.11-.76.34-.91h10.91c9.83,10.84,14.74,25.49,14.74,43.94h7.49v6.86ZM221.12,76.85c0-2.97-1.62-5.52-4.86-7.66-2.9-1.9-5.91-2.86-9.03-2.86-2.29,0-5.14,1.07-8.57,3.2-7.47,4.65-11.2,10.13-11.2,16.46,0,3.47.93,6.48,2.8,9.03,2.06,2.86,4.74,4.29,8.06,4.29s7.09-1.56,10.97-4.69c2.7-2.17,5.22-4.84,7.54-8,2.86-3.89,4.29-7.14,4.29-9.77Z"/>
      <path class="cls-1" d="M260.26,38c-.15.15-.59.23-1.31.23-.61,0-1.14-.08-1.6-.23l-3.71-7.6c-1.52-2.4-3.59-4.03-6.2-4.89-2.61-.86-4.22-1.8-4.83-2.83-.57-1.75-1.68-4.44-3.31-8.06v-1.31h2.23c2.93.91,5.31,1.77,7.14,2.57,3.01,1.33,5.03,2.88,6.06,4.63.57.95,1.45,3.39,2.63,7.31,1.1,3.7,2.04,6.27,2.8,7.71.08.69.11,1.51.11,2.46ZM263.64,50.8h-23.26v-6.86h23.26v6.86ZM257.12,107.31l-9.6-5.31v-44.11h9.6v49.42Z"/>
    </g>
  </g>
</svg>