<?xml version="1.0" encoding="UTF-8"?>
<svg id="Layer_2" data-name="Layer 2" xmlns="http://www.w3.org/2000/svg" viewBox="0 0 149.81 149.81">
  <defs>
    <style>
      .cls-1 {
        fill: #e16826;
      }

      .cls-2 {
        fill: #f6f6f6;
      }

      .cls-3 {
        fill: #66a9d4;
      }

      .cls-4 {
        fill: #ba683a;
      }

      .cls-5 {
        fill: #d96927;
      }

      .cls-6 {
        fill: #1e4e8a;
      }

      .cls-7 {
        fill: #469aca;
      }

      .cls-8 {
        fill: #1e5091;
      }

      .cls-9 {
        fill: #ecc957;
      }

      .cls-10 {
        fill: #f0d273;
      }

      .cls-11 {
        fill: #e1af3f;
      }

      .cls-12 {
        fill: #2a86bf;
      }

      .cls-13 {
        opacity: .2;
      }

      .cls-14 {
        fill: #efa325;
      }

      .cls-15 {
        fill: #e9f3f8;
      }

      .cls-16 {
        fill: #297a92;
      }
    </style>
  </defs>
  <g id="Layer_1-2" data-name="Layer 1">
    <g>
      <rect class="cls-13" width="149.81" height="149.81" rx=".5" ry=".5"/>
      <g>
        <path class="cls-5" d="M130.87,55.84h-6.63c-.51-5.18-4.95-10.55-10.52-7.64-6.99,3.64-6.86,21.05-2.46,26.64,5.15,6.55,12.19,1.58,12.98-5.22h6.63c-2.82,11.83-20.23,13.6-26.66,3.89-4.59-6.94-4.02-18.9,2.5-24.47,7.62-6.52,21.94-3.71,24.16,6.8Z"/>
        <path class="cls-5" d="M19.4,46.07c.05,1.63.69,3.27,1.22,4.8,2.03,5.89,4.75,11.58,6.63,17.53.24-.02.27-.26.35-.43,1.99-3.93,3.94-9.9,5.53-14.18.94-2.53,1.97-5.07,2.49-7.72h3.14l-13.35,33.5-13.69-33.5h7.68Z"/>
        <path class="cls-10" d="M61.09,99.97c.31,1.25.46,2.55.52,3.84.25,5.22-.65,10.3-2.44,15.18-10.13.82-20.31,1.91-30.45,2.8-.36.02-1.07-.2-1.3-.45-.25-.26-.11-.46-.17-.61-.07-.04-.2.1-.36-.11-.32-.4-.96-2.43-1.12-3.03-1.19-4.51-1.23-10.31-.41-14.89.05-.3.07-.6.33-.81-.65,6.79-1.03,12.37,1.57,18.84.49.25.37.34.62.5.64.4,1.17.08,1.82.02,7.88-.7,15.78-1.57,23.64-2.26.94-.08,4.76-.05,5.33-.43.28-.19.1-.66.16-.79.39-.85.41-.81.7-1.74.49-1.6.75-2.49.85-3.93.03-.41.43-1.3.52-1.94.06-.44.31-3.09.2-3.21-2.06.13-4.14.08-6.2.17-4.02.16-8.1.46-12.2.18-1.75-.12-5.14-.4-6.6-1.25-.31-.18-.72-.57-.82-.93,0-1.23,4.77-2.52,5.79-2.76,4.84-1.14,10.56-1.27,15.58-1.52,1-.05,2.2.13,3.15,0,.25-.03.54-.13.26-.35-.84.18-1.77-.19-2.53-.19-8.56-.03-17.14.16-25.73.02-1.57-.03-3.36-.42-4.96-.16-.63.1-.69.36-.97.86.04-.34-.07-.72.17-1.05,11.66-.02,23.43,0,35.06,0Z"/>
        <path class="cls-6" d="M120.06,99.97c-.17,0-.35,0-.52,0h-32.97c-.12,0-.23,0-.35,0l-.09-.17-.09.17c-.17,0-.35,0-.52,0-.06,0-.12,0-.17,0-.05-1.12.66-.4,1.26-.56.36-.09.68-.63,1.08-.65,1.43-.07,3.88.58,5.41.69,3.01.21,6.42-.5,9.43-.36,3.52.15,7.35.79,10.67.01,1.12-.26,2.91.04,4,.15,2.68.28,4.99.16,7.65.2.97.02,3.98.17,4.68-.04.43-.13.75-1.25.78-1.67.16-2.68.29-6.89.05-9.56-.08-.88-.22-1.22-1.13-1.31-2.24-.22-5.19,0-7.52,0-18.01-.04-36.21,0-54.24,0H13.73c-.48.08-.57.55-.61.96-.26,2.3-.22,7.78,0,10.13.06.65.21,1.11.83,1.44,3.3.04,6.61.08,9.91.03,2.18-.03,4.4-.18,6.61-.16,1.04,0,1.75-.11,2.79-.19,6.61-.54,14.17.86,20.6.19.61-.06,1.01-.37,1.56-.37,1.13,0,4.54.11,5.43.51.29.13.62.04.59.55-.12,0-.23,0-.35,0-11.64,0-23.4-.02-35.06,0-4.53,0-9.07,0-13.61,0v-13.35s.24-.26.26-.26h117.93s.26.24.26.26v13.08c0,.19-.43.25-.6.27-2.9.34-7.15-.02-10.21,0Z"/>
        <path class="cls-14" d="M31.79,100.32c1.05,5.12,1.02,11.02-.19,16.12-.42,1.76-1.07,3.22-1.91,4.81-.64.06-1.18.38-1.82-.02-.26-.16-.13-.26-.62-.5-2.6-6.47-2.22-12.05-1.57-18.84.02-.26.13-.57.17-.87.28-.5.35-.76.97-.86,1.6-.26,3.39.14,4.96.16Z"/>
        <path class="cls-2" d="M99.65,35.6h-6.19c-4.41,0-6.85-6.12-3.64-9.4.64-.66,2.59-1.76,3.47-1.76h2.7v-6.8h3.58c.19,0,.25.43.27.6.39,3.34-.16,7.43-.19,10.82-.02,2.2.41,4.37,0,6.55ZM95.98,26.01c-1.8.11-2.79.27-3.37,2.13-.81,2.61-.09,6.34,3.37,5.72v-7.85Z"/>
        <path class="cls-2" d="M114.82,17.63v6.8h2.7c.2,0,1.79.58,2.06.73,3.14,1.64,3.74,6.5,1.08,8.87-.67.6-2.46,1.57-3.32,1.57h-6.19v-17.97h3.66ZM114.82,33.86c2.35.27,3.35-.78,3.5-3.05.16-2.41-.5-5.13-3.5-4.63v7.68Z"/>
        <path class="cls-10" d="M86.04,99.97c.06,0,.12,0,.17,0,.12,0,.23,0,.35,0,10.99.01,21.98.03,32.97,0,.17,0,.35,0,.52,0,1.14,4.42,1.72,9.85-.04,14.18-.54,1.33-1.11,2.43-2.66,2.58-3.28.31-7.27-.08-10.66-.01-6.64.14-13.31.46-19.97.7,1.39-4.37,1.71-8.79.52-13.26-.39-1.47-1.04-2.85-1.74-4.19.17,0,.35,0,.52,0ZM87.43,116.54c0,.23.03.41.28.5,1.15-.09,2.51-.3,3.64-.33,8.34-.26,16.6-.49,24.96-.52,1.23,0,1.66.4,2.62-.86,2.12-2.79,1.9-10.68,1.05-13.97-.14-.56-.28-.79-.88-.87-1.6-.22-5.83-.14-7.52,0-2.85.25-6.79,1.69-9.81,2.23-2.34.41-4.79.76-7.12,1.08s-4.47.47-6.7.71c.15.64.09,1.39.18,2,.39,2.59.59,5.31,0,7.95,0,.02-.25.1-.3.3-.1.42-.41,1.45-.39,1.79Z"/>
        <path class="cls-2" d="M35.28,18.68v2.27h-4.36v14.39s-.24.26-.26.26h-4.45v-14.65h-4.54v-2.27h13.61Z"/>
        <path class="cls-2" d="M41.64,24.44c3.42.46,4.37,4.91.96,6.19.9,1.65,2.46,3.17,2.96,4.97h-3.93l-2.71-5.32c-.05-.4.67-.23,1.11-.46,1.9-.98.93-4.4-1.46-3.82v9.6s-3.49,0-3.49,0v-11.16c2.04.2,4.56-.27,6.54,0Z"/>
        <path class="cls-2" d="M68.25,35.34c-.11.36-2.29.53-2.27-.17.21-2.86-.28-6.09,0-8.9.24-2.4,2.14-2.66,3.9-1.46l3.43,5.03v-5.41h2.09v10.21c0,1.1-1.77,1.55-2.53.79-1.61-2.19-3.06-4.56-4.62-6.8v6.72Z"/>
        <path class="cls-4" d="M94.06,55.84h-6.45c-.72-5.08-5.05-10.58-10.64-7.59-7.42,3.97-7.43,24.33-.09,28.7,4.79,2.85,8.61-1.01,10.21-5.32.15-.41.49-2.18.78-2.18h6.11c.11,0,.25.26.24.4s-.69,1.88-.82,2.16c-3.73,8.32-15.56,9.92-22.63,4.94-8.13-5.72-8.34-21.4-.96-27.83,7.54-6.57,22.27-3.98,24.25,6.72ZM93.54,69.97h-5.5c-.54,1.33-.88,2.91-1.59,4.17-3.16,5.65-9.77,5.39-12.95-.09-2.82-4.87-3.04-13.03-1.69-18.38,1.14-4.51,4.31-9.77,9.73-8.49,3.07.72,4.84,3.38,5.88,6.16.15.39.36,2.17.8,2.17h5.06c.37,0,.16-1.2.07-1.43-2.8-7.74-13.94-9.93-20.66-6.42-8.48,4.43-9.81,17.61-5.14,25.22,4.05,6.59,13.23,8.11,19.89,4.71,2.75-1.4,5.64-4.46,6.1-7.59Z"/>
        <path class="cls-16" d="M61.97,106.95c.02,2.99-.58,6.04-1.39,8.9l17-1.23c2.28.11,4.55-.04,6.8-.17.64-.04,2.57.25,2.85-.29.17-.31.36-2.1.39-2.58.16-2.52-.41-4.52-.53-6.9,0-.19-.04-.44.17-.52,1.19,4.47.86,8.89-.52,13.26-.17,0-.35,0-.52,0l.09-.7c-8.79.23-17.51.85-26.31,1.04-.41.53-.51,1.05.23,1.23-.34.03-.7-.03-1.05,0,1.79-4.87,2.7-9.96,2.44-15.18.34.78.15,1.85.17,2.72,0,.23.18.4.18.42Z"/>
        <path class="cls-2" d="M57.26,35.6h-3.75c-.5-.33-.46-1.97-.77-2.19-.41-.29-2.89.06-3.57-.09-.56,1.88-.4,2.6-2.72,2.28.78-3.5,2.33-6.78,3.28-10.24.86-1.66,3.53-1.54,4.17.26l3.36,9.98ZM49.58,31.76h2.79c-.44-1.24-.7-2.57-1.18-3.8-.07-.19.06-.5-.3-.38-.21.06-1.13,3.67-1.31,4.19Z"/>
        <path class="cls-2" d="M126.77,24.44l2.44,5.23c.26-.65,1.96-5.05,2.21-5.2.12-.07,1.39-.06,1.63-.03s.3-.1.26.26l-7.06,15.63c-.51-.06-1.09.05-1.58-.01-.24-.03-.3.1-.26-.26l2.53-5.67.08-.6c-.59-1.34-1.12-2.72-1.71-4.06-.76-1.72-1.92-3.47-2.3-5.29h3.75Z"/>
        <path class="cls-2" d="M82.03,28.97h3.66v1.74h-3.66c0,.44-.15,2.97.44,2.97h3.84c.38,0,.38,1.92,0,1.92h-5.93c-1.03,0-1.75-1.05-1.84-2-.11-1.16-.2-6.75.06-7.64.19-.66.9-1.53,1.61-1.53h5.93c.2,0,.92,1.67-.71,1.9-2.39.34-3.76-1.08-3.38,2.63Z"/>
        <path class="cls-12" d="M60.22,118.99c-.74-.18-.64-.7-.23-1.23,8.8-.19,17.52-.81,26.31-1.04l-.09.7c-.46.01-.94-.03-1.4,0-.21-.25-1.16-.26-1.46-.18-.2.05-.09.33-.11.35-.04.04-.29.05-.35.17l-.17.09.17.09c.03.05.26.16.38.39,1.99,3.75,4.1,7.49,5.99,11.29.36.72.82,1.44.87,2.27l-8.69-3.46c-1.51,1.78-2.56,4.3-3.99,6.14-.15.19-.17.36-.49.29-1.02-4.02-2.05-8.04-3.14-12.04l-.17-.52c-.03-.1.03-.25,0-.35,0-.47.21-.49.6-.53,1.41-.15,3.13-.3,4.54-.35,1.89-.07,3.8.03,5.68.1-.23-.23-.04-.38-.43-.45-.52-.09-.94-.19-1.44-.29-3.24-.66-6.63-.8-9.81-1.62,0-.03-.15-.14-.17-.35-.02-.18.63-.32-.35-.35-.06,0-.12,0-.17,0-3.04-.05-6.59.29-9.59.52-.17.01-.35,0-.52,0l-.35.17c-.49.04-.94.14-1.4.17Z"/>
        <path class="cls-4" d="M50.63,46.07c-.22,1.38-.46,2.88-.53,4.27-.35,6.94-.29,15.56,0,22.52.04.87.09,2.5.22,3.27.1.57.36.9.93.98,1.59.23,6.34.15,7.8-.37,1.69-.6,2.54-1.78,3.61-3.1l-.73,5.46-.13.22c-2.52.11-5.08.1-7.61.08-2.42-.02-4.89-.21-7.33-.19-.68,0-3.32.5-3.67.01-.11-.15.47-3.08.46-3.57-.35-8.46.43-17.24,0-25.66-.07-1.28-.28-2.66-.53-3.92h7.5ZM50.1,46.42h-6.28v32.45h17.53c.3-.61.51-1.89.53-2.62.04-1.17-1.49.47-2.1.71-1.82.72-6.45.97-8.37.68-1.68-.26-1.48-1.53-1.68-2.86.37-8.5-.47-17.38,0-25.83.05-.85.26-1.68.36-2.52Z"/>
        <path class="cls-2" d="M62.84,24.44v11.16h-3.4s-.26-.24-.26-.26v-10.64s.24-.26.26-.26h3.4Z"/>
        <path class="cls-16" d="M72.08,118.11c-.27,1.09-.65,2.2-1.04,3.24-.1.27-.35.39-.36.42l-10.99,1.74c.1-.15.14-.54.32-.82.84-1.34,1.89-2.59,2.47-4.07,3.01-.23,6.55-.57,9.59-.52Z"/>
        <path class="cls-16" d="M72.78,118.81c3.18.82,6.57.96,9.81,1.62.5.1.92.2,1.44.29.39.07.21.21.43.45-1.88-.06-3.79-.16-5.68-.1-1.41.05-3.13.19-4.54.35-.4.04-.6.06-.6.53-.3-1.12-.65-1.88-.87-3.14Z"/>
        <path class="cls-2" d="M60.34,18.02c3.5-.8,3.36,4.18.54,3.94-2.33-.2-2.35-3.52-.54-3.94Z"/>
        <path class="cls-16" d="M84.82,117.42c-.36.03-1.03.34-1.57.17.02-.02-.09-.3.11-.35.3-.08,1.24-.07,1.46.18Z"/>
        <path class="cls-16" d="M72.26,118.11c.97.03.33.17.35.35l-.35-.35Z"/>
        <path class="cls-16" d="M73.83,122.82c-.03-.12-.12-.31-.17-.52l.17.52Z"/>
        <path class="cls-16" d="M69.12,126.31l.17-.52c-.06.17-.11.35-.17.52Z"/>
        <path class="cls-16" d="M61.97,118.64s-.03.15-.35.17l.35-.17Z"/>
        <path class="cls-16" d="M69.47,125.27l.17-.35c-.06.18-.16.31-.17.35Z"/>
        <path class="cls-16" d="M82.9,117.94l-.17-.09.17-.09s-.01.15,0,.17Z"/>
        <path class="cls-16" d="M69.99,123.87l.17-.17c-.03.09-.16.14-.17.17Z"/>
        <path class="cls-16" d="M69.82,124.22l.17-.17c-.04.1-.17.15-.17.17Z"/>
        <path class="cls-12" d="M70.69,121.78c-.19.52-.29,1.3-.52,1.92l-.17.17c-.02.05.02.12,0,.17l-.17.17c-.03.09.03.26,0,.35l-.17.17c-.02.05.02.12,0,.17l-.17.35c-.06.17-.11.35-.17.52l-.17.52c-1.77,4.9-3.43,9.86-5.22,14.75l-.53.43-3.5-6.8-9.23,2.88c2.13-3.24,4.13-6.57,6.2-9.84.9-1.43,1.96-2.78,2.86-4.2l10.99-1.74Z"/>
        <path class="cls-16" d="M69.64,124.74l.17-.17c-.05.13-.17.16-.17.17Z"/>
        <path class="cls-9" d="M31.79,100.32c8.59.14,17.17-.04,25.73-.02.76,0,1.69.37,2.53.19.28.22,0,.32-.26.35-.95.12-2.15-.06-3.15,0-5.02.25-10.73.38-15.58,1.52-1.02.24-5.79,1.54-5.79,2.76.1.36.51.76.82.93,1.47.85,4.85,1.12,6.6,1.25,4.11.28,8.19-.02,12.2-.18,2.06-.08,4.14-.04,6.2-.17.11.11-.14,2.77-.2,3.21-.09.64-.49,1.54-.52,1.94-.1,1.43-.36,2.32-.85,3.93l-25.99,2.44,25.29-.7c-.06.14.11.61-.16.79-.57.38-4.39.35-5.33.43-7.86.7-15.76,1.56-23.64,2.26.84-1.59,1.49-3.05,1.91-4.81,1.21-5.1,1.23-11,.19-16.12Z"/>
        <path class="cls-7" d="M72.26,99.97c-.13.69-.99.95-1.46,1.41-1.01,1-1.87,2.82-1.68,4.26.09.67.18.56.78.61l10.21-.88c.13-1.3-.7-3.33-1.65-4.2-.46-.43-1.24-.45-1.32-1.21.45,0,1.5-.17,2.01-.17h3.31c.81,0,1.92.17,2.88.17.06,0,.12,0,.17,0,.71,1.34,1.35,2.71,1.74,4.19-.22.08-.18.33-.17.52-1.06.35-6.19.24-6.76.74-.28.24-.17,1.12-.3,1.53-1.76,5.56-9.68,5.15-10.84-.54l-7.22.53s-.18-.2-.18-.42c-.02-.87.18-1.93-.17-2.72-.06-1.29-.21-2.59-.52-3.84.12,0,.23,0,.35,0,3.62,0,7.22,0,10.82,0Z"/>
        <path class="cls-11" d="M59.52,116.02c-.29.93-.3.9-.7,1.74l-25.29.7,25.99-2.44Z"/>
        <path class="cls-8" d="M61.44,99.97c.04-.51-.3-.42-.59-.55-.89-.4-4.3-.52-5.43-.51-.55,0-.95.31-1.56.37-6.43.67-14-.73-20.6-.19-1.04.08-1.75.2-2.79.19-2.21-.02-4.44.12-6.61.16-3.3.05-6.61,0-9.91-.03-.61-.33-.77-.79-.83-1.44-.22-2.34-.26-7.83,0-10.13.05-.41.13-.89.61-.96h53.74c18.03-.01,36.23-.05,54.24,0,2.33,0,5.28-.22,7.52,0,.91.09,1.05.43,1.13,1.31.24,2.67.11,6.88-.05,9.56-.02.41-.34,1.54-.78,1.67-.7.21-3.72.06-4.68.04-2.66-.05-4.97.08-7.65-.2-1.09-.11-2.88-.41-4-.15-3.31.78-7.15.14-10.67-.01-3.01-.13-6.43.57-9.43.36-1.53-.11-3.98-.75-5.41-.69-.4.02-.73.56-1.08.65-.6.15-1.31-.56-1.26.56-.96,0-2.07-.17-2.88-.17h-3.31c-.5,0-1.56.17-2.01.17-.41,0-.81,0-1.22,0,.1-.55-.46-.52-.35,0-1.12,0-2.24,0-3.31,0-3.6,0-7.19,0-10.82,0ZM58.82,87.94h-.35v.52h.35v-.52ZM37.54,96.83c.04-.09.49-.09.54-.29.08-.33-.19-1.06-.19-1.53-.02-1.05.05-1.92.18-2.81.09-.62,0-1.29.18-1.91-.92.02-.29-.78-.69-1.06-.51-.36-.79.47-.62-.95-.41-.66-.71.59-.81.76s-.34.32-.41.47c-.15.35,0,2.35-.09,2.43-.81-.11-1.5.34-2.27,0v-2.7c0-.05.58-.55.35-.96-.94,0-1.48,1.07-2.44.87.17.84-.18,1.76-.18,2.52,0,1.32.37,2.99.19,4.38-.03.22-.68.51-.35.93.18.23,2.07.3,2.43-.07.66-.67-1.24-3.89,1.62-3.02.61.18.81,2.1.82,2.67,0,.46-.58,1.68.41.94.07-.05.06-.3.22-.34.5-.11.68.37,1.11.36.04-.19-.06-.57,0-.7ZM68.77,88.11c-.19-.19-.54.16-.35.35s.54-.16.35-.35ZM51.15,97.18c.36.74,1.36.07,1.88-.13.18-.07.44,0,.6-.05.19-.07.18-.31.32-.41.22-.15.54-.17.7-.36.54-.63-.2-1.75,1.21-1.15.1-.12-.12-1.67-.19-1.96-.03-.14-.28-.12-.33-.26-.15-.54.03-1.41-.08-1.79-.11-.36-1.38-1.66-1.71-1.79-.69-.28-1.97,0-1.88-.99-.16-.15-.94.62-1.24.77-1.03.5-.96.54-1.74,1.05-.24.16-.94.17-1.02.29-.22.34.26,1.42.15,1.54-.03.04-.69.02-.87.45-.13.32.74.29.35.61-.06.05-.52-.03-.7,0,.06-.78.22-1.42-.2-2.16-.37-.65-1.1-.64-.68-1.68-1.11.62-1.57-.95-2.18-.89-.42.05-.26.52-.7.56s-.7-.55-1.13-.29c-.54.58-3.3,3.23-3.14,3.84.05.19.47.19.52.39.14.56.06,1.99.02,2.59,0,.08.23.05.31.21.08.18,0,.45.17.67.22.29.82.27,1.06.51.2.2.15.65.46.76.67.24,2.36-.08,3.12-.15.22-.02.51.18.68.15.38-.08.43-.96.62-1.24.16-.24.64-.31.79-.65.19-.41.04-1.19.36-1.56.67-.79.69.5.88.86.14.26.46.44.64.76.14.24.06.63.17.79.03.04.77.39.97.51.18.11.22.4.33.41.24.03.53-.17.76-.18s.49.03.7,0ZM79.58,88.28h-.35v.52h.35v-.52ZM125.64,89.51c.01-.11,0-.23,0-.35-.95.35-.91-.74-1.63-.5-.37.12-.62,2-1.56,1.87-.87-.12-.73-1.24-.92-1.38-.41-.29-1.52.03-1.9-.85-.8.01-.19,1.16-.26,1.22-.29.01-.58,0-.87,0-.05-.35-.63-.85-.97-.88-.38-.04-.61.36-.86.36-.24,0-.42-.31-.69-.33-.29-.02-.77.2-1.23.17-.67-.03-1.32-.28-2-.19-.06.57-.43,2.6.29,2.79.63.17.61-.34.66-.36.7-.2.32.44.47.93.07.24.38.36.45.59.22.71-.14,4.01.04,4.24.12,0,.23,0,.35,0,.4.02.83.02,1.22,0,.12,0,.23,0,.35,0-.2-1.07.36-2.22.36-3.23,0-.56-.37-1.41-.11-1.84.12-.19.47-.22.66-.35.45-.32.56-.31,1.04-.57.23-.12.31-.44.43-.47,1.31-.32.35,1.01,1.45.87.46.82.83,1.36,1.22,2.27.12.69-.24,2.73.17,3.14.23.23,1.28.27,1.57.17.26-.09.16-.23.18-.43.11-.88-.09-1.98,0-2.89.32-1.18,2.01-3.14,2.09-4.01ZM18.88,89.51c-.67.09-1-.18-1.45.57-.37.61-.6,1.21-.44,1.94l2.07,2.28c.56-.11,1.65.63,1.21,1.14-.11.13-1.62-.45-1.86-.48-1.77-.17-1.92,2.18.25,2.52.82.13,2.9-.13,3.49-.7.2-.19.87-2,1.35-1.87.24.06,1,1.58,1.18,1.7.12.08,2.32,1.08,2.45,1.07.18-.02.39-.26.59-.29.63-.08,2.16.14,2.32-.64.1-.5.11-1.29-.39-1.53-.96-.47-.9.34-1.13.4-.98.25-2.57-.91-2.8-1.88-.4-1.76.59-1.32.91-1.79.14-.21.02-.56.27-.78,1.14-1.04,2.24.45,2.96,0,.41-.25.35-1.31.13-1.62-.06-.09-.29-.02-.3-.04-.12-.16-.03-.53-.47-.66-.34-.1-2.62-.09-2.84.05-.14.09-.19.4-.36.51-.28.19-.82.14-1.2.37-.58.34-1.34,2.98-1.77,3.81-.6,1.14-.94-.46-.86-1.12-1.04.54-1-.34-1.25-.49-.32-.18-1.06.2-1.36-.3.12-.93.89.1,1.04-.09v-.7c.23-.23,1.68.92,1.74-.99,0-.33-.88-1.19-1.16-1.27-.36-.09-.56.33-.84.34-.31,0-.46-.49-1.04-.54-.85-.07-.08.43-.44,1.05ZM102.96,93.34c-.25-1.34-.17-2.23-.83-3.44-.11-.19-.15-.66-.24-.72-.13-.09-.45.04-.63-.06-.37-.21-.28-1.04-1.58-.45.06,1.11-2.74,7.82-2.45,8.14.07.08.3,0,.32.03.02.02-.08.3.11.35,1.75.46,1.4-1.27,1.96-1.99.15-.19,1.69-.17,1.94-.02.34.21.46,1.54.87,1.66.12.04,1.46.04,1.57,0,.76-.25-.35-2.38-.58-2.83-.12-.25-.01-.58-.47-.48-.01-.06.01-.12,0-.17ZM84.64,97.01c.83.79.99.24,1.64.35.36.07,2.05.66,2.2.52.03-.03.04-.5.2-.76.8-1.25.75-.47,1.21-2.26.04-.14.3-.11.34-.24.24-.87-.37-.73-.49-1.04-.33-.88-.03-2.3-.21-3.08-.03-.11-.25-.1-.32-.26-.1-.2,0-.54-.26-.75-.28-.22-.64-.08-.85-.17-.15-.07-.13-.27-.27-.32-.84-.29-2.28-.54-3.07-.03-.22.14-.05.45-.1.54-.03.06-.16.12-.17.17-.04.16-.15.22-.19.59-.13,1.43-.16,4.74,0,6.14.03.28.1.26.18.42.03.05.12.12.17.17ZM79.06,89.51c0-.35-.21-.52-.51-.62-.32-.1-3.05-.11-3.57-.06-.8.07-.48.35-.68.62-.1.14-.43.18-.47.33-.06.22.3.5.32.72.02.25-.44.53-.31.75.01.02.24-.01.4.22.48.69.6,2.13-.58,1.88-.04-.4.4-.51.36-.95-.01-.11-.3-.1-.36-.21-.15-.29-.52-.81-.53-.87-.02-.25.24-.58.17-.82-.06-.2-.42-.28-.59-.48-.1-.12-.06-.42-.12-.48-.1-.09-.77,0-1.07-.06-.58-.13-.71-.63-1.6-.67-.47-.03-2.59.46-3.02.65-.13.06-.79,1.55-.96,1.83-.61,2.15.11,3.79.31,5.91.24.36,1.7-.29,2.38.59.42.54-.09,1.23,1.38.97.1-.09-.31-1.09-.17-1.22.03-.03.39.04.56-.04,1.14-.56,1.54-1.16,2.93-.48.16-.51-.39-.88-.35-1.29.04-.44.83-2.08,1.05-.88.14.79.31,1.56.44,2.35.4.37,1.02.87,1.55.51.16-.11.74-1,.78-1.16.09-.4-.2-.73-.12-1.13.3-1.57,2.11-.87,2.55-1.39.12-.14.29-1.25.21-1.35-.12,0-.23,0-.35,0-.06,0-.12,0-.17,0,.26-.85-.76-.22-.53-.96.04-.13.95-.49,1.04-.75.05-.14.22-1.38.18-1.43-.12,0-.23,0-.35,0-.06,0-.12,0-.17,0ZM95.81,89.51c0-.12,0-.23,0-.35-.13-.1-2.72.06-3.24,0-.87-.09-1.13-.96-1.3.94-.07.74-.17,6.44.05,6.69.07.08.29,0,.31.03s-.05.24.03.31c.16.14,3.93.12,4.21.04.19-.05.09-.33.12-.35.02-.02.24.05.31-.03.17-.2.03-1.19-.22-1.19h-2.7c-.08,0-.31-1.28-.1-1.58.5-.72,3,.84,2.73-1.3-.1-.82-2.32-.45-2.6-.63-.11-.07-.25-.74-.19-.91.2-.63,2.15-.27,2.61-.63-.01-.35.02-.7,0-1.05ZM122.67,88.81h-.52s0,.7,0,.7h.26c.27-.18.3-.37.26-.7ZM58.3,89.33c-.18-.45-1.4-.53-1.66,0-.23.48-.03,1.57-.09,2.18-.15,1.52-.27,2.83-.18,4.36.03.49.31.97.34,1.42.03.42-.5,1.21.43.57.25-.17.41-.68.45-.68h4.01c.34,0,.11-2.26-1.12-2.28-.38,0-1.28.5-1.48-.1-.16-.48.36-.78.32-1s-.55-.43-.65-.76c-.25-.84.11-2.23.08-3.08,0-.28-.11-.55-.46-.46,0-.06.02-.13,0-.17ZM109.94,89.51c-.16.26-.6.6-.69,1.32-.08.63.13,1.77-.03,2.24-.12.33-.63.25-.77.45-.35.5.42,2.58-1.3.97-.08-.37.5-.35.54-.55.09-.52-.4-.83.33-1.53-.37-1.08-.94-2.13-1.05-3.23-1.04.1-1.63-.46-1.74.78-.08.8-.14,5.39.03,5.91.14.45,2.39,1.9,2.9,1.99,1.02.17.78-.38.91-.66.18-.37.46-.36.7-.52-.12,1.29,1.17-.13,1.37-.46.73-1.26.18-2.84.37-4.17.06-.42.36-.67.38-1.04.01-.32-.33-.22-.37-.37-.09-.36.27-1.04-.35-.93,0-.06,0-.12,0-.17-.02-.17.08-.53-.09-.53-.26.23-1.09-.04-1.13,0-.06.06.05.44,0,.52ZM113.25,91.95c-.29-.26-.78.22-.52.52.16.19.71-.35.52-.52ZM74,97.53h-.7v.35h.7v-.35Z"/>
        <path class="cls-16" d="M119.53,99.97c-10.99.03-21.98.01-32.97,0h32.97Z"/>
        <path class="cls-16" d="M86.21,99.97c-.06,0-.12,0-.17,0l.09-.17.09.17Z"/>
        <path class="cls-9" d="M87.43,116.54l29.83-2.09-.26-.35c-9.64-.09-19.25.08-28.87.35.6-2.64.4-5.35,0-7.95-.09-.61-.03-1.36-.18-2,2.23-.25,4.48-.41,6.7-.71,2.33-.32,4.78-.67,7.12-1.08,3.02-.53,6.96-1.98,9.81-2.23,1.68-.15,5.92-.22,7.52,0,.6.08.73.31.88.87.84,3.3,1.07,11.19-1.05,13.97-.96,1.26-1.39.85-2.62.86-8.36.03-16.62.26-24.96.52-1.13.04-2.49.24-3.64.33-.25-.09-.27-.27-.28-.5Z"/>
        <path class="cls-11" d="M88.13,114.45c9.62-.26,19.23-.44,28.87-.35l.26.35-29.83,2.09c-.01-.34.29-1.38.39-1.79.05-.2.3-.28.3-.3Z"/>
        <path class="cls-1" d="M93.54,69.97c-.46,3.13-3.35,6.19-6.1,7.59-6.67,3.4-15.85,1.88-19.89-4.71-4.67-7.6-3.34-20.78,5.14-25.22,6.72-3.51,17.86-1.32,20.66,6.42.09.24.3,1.43-.07,1.43h-5.06c-.44,0-.65-1.77-.8-2.17-1.04-2.78-2.81-5.43-5.88-6.16-5.42-1.28-8.59,3.98-9.73,8.49-1.35,5.36-1.13,13.52,1.69,18.38,3.18,5.49,9.79,5.75,12.95.09.71-1.26,1.05-2.83,1.59-4.17h5.5Z"/>
        <path class="cls-12" d="M87.09,104.68c.12,2.38.69,4.38.53,6.9-.03.48-.23,2.26-.39,2.58-.29.54-2.21.25-2.85.29-2.26.13-4.52.28-6.8.17l-17,1.23c.81-2.86,1.41-5.9,1.39-8.9l7.22-.53c1.15,5.69,9.08,6.09,10.84.54.13-.41.03-1.29.3-1.53.57-.5,5.7-.39,6.76-.74Z"/>
        <path class="cls-1" d="M50.1,46.42c-.1.84-.31,1.67-.36,2.52-.47,8.45.37,17.33,0,25.83.2,1.33,0,2.6,1.68,2.86,1.92.3,6.55.05,8.37-.68.61-.24,2.13-1.88,2.1-.71-.02.73-.24,2.01-.53,2.62h-17.53v-32.45h6.28Z"/>
        <path class="cls-3" d="M75.57,99.97c.12,0,.23,0,.35,0,.41,0,.81,0,1.22,0,.07.76.85.79,1.32,1.21.94.87,1.78,2.9,1.65,4.2l-10.21.88c-.6-.05-.7.06-.78-.61-.18-1.45.67-3.27,1.68-4.26.47-.47,1.34-.72,1.46-1.41,1.08,0,2.2,0,3.31,0Z"/>
        <path class="cls-6" d="M18.88,89.51c.36-.62-.41-1.13.44-1.05.58.05.73.54,1.04.54.28,0,.48-.43.84-.34.28.07,1.17.93,1.16,1.27-.06,1.91-1.51.75-1.74.99v.7c-.16.18-.92-.85-1.05.09.3.5,1.04.12,1.36.3.26.15.22,1.03,1.25.49-.08.66.27,2.27.86,1.12.43-.83,1.19-3.47,1.77-3.81.38-.23.92-.18,1.2-.37.17-.12.22-.42.36-.51.22-.14,2.51-.16,2.84-.05.44.13.35.51.47.66-1.7-.39-4.12-.21-5.1,1.45-1.48,2.51-.22,5.92,2.91,6.06,1.14.05,2.61.03,2.01-1.4-2.12.83-4.25-.03-4.2-2.53.03-1.63,1.06-2.73,2.72-2.72,1.22,0,1.58,1.14,1.66-.86.01.02.24-.05.3.04.23.32.28,1.37-.13,1.62-.72.45-1.82-1.04-2.96,0-.24.22-.13.57-.27.78-.32.47-1.31.02-.91,1.79.22.97,1.82,2.13,2.8,1.88.23-.06.17-.86,1.13-.4.5.24.49,1.03.39,1.53-.15.78-1.69.57-2.32.64-.2.02-.42.27-.59.29-.13.01-2.33-.99-2.45-1.07-.19-.12-.94-1.63-1.18-1.7-.48-.12-1.15,1.69-1.35,1.87-.58.56-2.67.83-3.49.7-2.17-.35-2.02-2.7-.25-2.52.23.02,1.75.61,1.86.48.44-.51-.66-1.25-1.21-1.14l-2.07-2.28c-.16-.73.08-1.33.44-1.94.45-.75.78-.48,1.45-.57-.23.4-.92.58-1.14,1.39-.7,2.63,2.87,2.51,3.2,3.62.53,1.79-2,1.58-3.01.92-1.3,1.54,1.32,1.71,2.4,1.53,1.81-.31,2.77-2.24,1.44-3.62-.84-.87-3.13-.82-2.67-2.32.39-1.27,2.63-.18,2.76-.3.74-1.93-1.76-1.38-2.96-1.22Z"/>
        <path class="cls-6" d="M79.06,92.65c.12,0,.23,0,.35,0,.08.1-.09,1.21-.21,1.35-.45.53-2.25-.18-2.55,1.39-.08.4.21.74.12,1.13-.04.16-.62,1.06-.78,1.16-.53.36-1.15-.13-1.55-.51-.13-.79-.29-1.56-.44-2.35-.22-1.2-1.01.44-1.05.88-.04.41.52.78.35,1.29-1.39-.68-1.79-.07-2.93.48-.17.08-.53.01-.56.04-.13.12.28,1.13.17,1.22-1.47.26-.96-.44-1.38-.97-.68-.87-2.14-.23-2.38-.59-.2-2.12-.91-3.76-.31-5.91.17-.28.84-1.77.96-1.83.43-.2,2.55-.68,3.02-.65.89.05,1.02.54,1.6.67.3.07.98-.03,1.07.06.06.06.02.35.12.48.17.2.53.28.59.48.07.25-.19.57-.17.82,0,.05.38.57.53.87.06.11.35.11.36.21.04.44-.4.55-.36.95,1.18.25,1.06-1.19.58-1.88-.16-.23-.39-.2-.4-.22-.13-.22.34-.5.31-.75-.02-.22-.38-.5-.32-.72.04-.15.36-.19.47-.33.2-.27-.12-.54.68-.62.52-.05,3.25-.04,3.57.06.3.1.52.27.51.62-1.39-.03-2.79.02-4.19,0v7.5c.28.02,1.4.07,1.4-.26v-3.05h2.79s0-1.05,0-1.05ZM66.96,90.49c-.18.21-.37.17-.55.58-.51,1.15-.52,2.45-.13,3.63,1.36,4.18,6.61,2.61,6.69-1.44.07-3.4-3.69-5.42-6.01-2.77Z"/>
        <path class="cls-6" d="M50.45,97.18c-.23.01-.51.21-.76.18-.11-.01-.15-.3-.33-.41-.2-.12-.94-.46-.97-.51-.11-.15-.03-.54-.17-.79-.18-.32-.5-.5-.64-.76-.19-.35-.21-1.65-.88-.86-.31.37-.17,1.15-.36,1.56-.15.34-.63.41-.79.65-.19.28-.23,1.17-.62,1.24-.17.04-.46-.17-.68-.15-.76.07-2.45.39-3.12.15-.31-.11-.25-.56-.46-.76-.24-.24-.85-.22-1.06-.51-.16-.22-.09-.49-.17-.67-.07-.16-.31-.14-.31-.21.04-.6.12-2.04-.02-2.59-.05-.2-.47-.2-.52-.39-.16-.61,2.6-3.25,3.14-3.84.42-.27.69.32,1.13.29s.28-.51.7-.56c.6-.06,1.07,1.51,2.18.89-.43,1.04.3,1.03.68,1.68.42.73.26,1.37.2,2.16.17-.03.63.05.7,0,.39-.31-.48-.28-.35-.61.18-.43.83-.41.87-.45.11-.12-.37-1.2-.15-1.54.08-.12.77-.13,1.02-.29.78-.51.7-.55,1.74-1.05.3-.15,1.08-.92,1.24-.77-.09,1,1.19.72,1.88.99.34.14,1.61,1.43,1.71,1.79.11.38-.07,1.25.08,1.79.04.14.29.12.33.26.07.29.29,1.84.19,1.96-1.4-.6-.67.52-1.21,1.15-.16.19-.48.21-.7.36-.14.1-.13.34-.32.41-.16.06-.42-.02-.6.05-.52.2-1.52.87-1.88.13.98-.15,1.92-.31,2.71-1.04,1.79-1.65,1.45-5.62-.97-6.55-4.12-1.57-6.41,3.61-3.84,6.46l1.4,1.13ZM41.95,97.13c.77.33,2.05-.13,2.73-.57,2.96-1.9,1.96-7.95-2.48-7.19-2.96.51-3.58,4.94-1.69,6.84.1.1,1.35.88,1.43.92Z"/>
        <path class="cls-15" d="M84.64,97.01c-.05-.05-.15-.13-.17-.17v-7.15c.02-.06.14-.12.17-.17h.17c.06,0,.12,0,.17,0,1.25-.17,3.14-.43,4.02.78,1.07,1.48-.7,2.45-.7,2.62,0,.16,1.37.5,1.23,2.09-.2,2.22-3.29,2.05-4.89,2.01ZM85.86,92.47c2.87.35,2.86-2.49,0-2.09v2.09ZM85.86,93.52v2.44c3.08.49,3.12-2.98,0-2.44Z"/>
        <path class="cls-15" d="M51.15,97.18c-.21.03-.47-.01-.7,0l-1.4-1.13c-2.56-2.84-.28-8.03,3.84-6.46,2.42.92,2.76,4.89.97,6.55-.79.73-1.73.89-2.71,1.04ZM52.66,90.78c-2.37-1.99-4.64,2.71-2.48,4.66,2.52,2.27,4.81-2.7,2.48-4.66Z"/>
        <path class="cls-15" d="M109.07,97.18c-1.3.17-2.53-.25-3.22-1.41-.09-.15-.45-.86-.45-.95v-5.32h1.4v5.32c0,.36.9,1.08,1.32,1.13,2.68.33,1.6-4.92,1.82-6.45h1.22c0,.06,0,.12,0,.17.07,1.53.28,5.32-.62,6.45-.27.34-.51.34-.78.53-.23.17-.52.15-.7.52Z"/>
        <path class="cls-15" d="M97.55,96.83l2.09-7.33c.42.08,1.62-.14,1.89.03.42.26.79,3.35,1.42,3.81.01.06-.01.12,0,.17.22,1.17.54,2.23,1.05,3.31-.11.04-1.45.04-1.57,0l-.63-2.1c-.54.12-1.96-.17-2.34.09-.64.42.02,2.62-1.91,2.01ZM101.56,93.87c.12-.13-.57-2.35-.71-2.69-.07-.18-.06-.42-.34-.45-.06,1.09-.75,2.05-.7,3.14.63.03,1.13-.27,1.74,0Z"/>
        <path class="cls-6" d="M37.54,96.83c-.06.13.04.5,0,.7-.42,0-.61-.47-1.11-.36-.16.04-.16.29-.22.34-.99.74-.41-.48-.41-.94,0-.57-.21-2.49-.82-2.67-2.86-.87-.96,2.36-1.62,3.02-.36.37-2.25.3-2.43.07-.34-.42.32-.71.35-.93.18-1.4-.2-3.06-.19-4.38,0-.77.35-1.68.18-2.52.96.2,1.5-.87,2.44-.87.23.41-.35.91-.35.96v2.7c.77.34,1.46-.11,2.27,0,.09-.08-.06-2.08.09-2.43.07-.15.31-.29.41-.47s.4-1.42.81-.76c-.17,1.42.11.59.62.95.4.28-.23,1.08.69,1.06-.18.62-.1,1.29-.18,1.91-.13.88-.19,1.75-.18,2.81,0,.48.27,1.2.19,1.53-.05.2-.49.2-.54.29l-.02-7.04c-.15-.46-.97-.25-1.37-.29v2.7s-.24.26-.26.26h-2.88v-2.97h-1.4v7.33h1.4v-3.31h3.14v3.31h1.4Z"/>
        <path class="cls-2" d="M95.81,89.51c.02.35-.01.7,0,1.05h-2.97s0,1.92,0,1.92h2.53c.27,0,.31.8.26,1.05h-2.79v2.27s3.14,0,3.14,0v1.05h-4.36v-7.33s4.19,0,4.19,0Z"/>
        <path class="cls-15" d="M79.06,89.51c.06,0,.12,0,.17,0v1.05s-2.97,0-2.97,0v2.1c.87.01,1.75-.02,2.62,0,.06,0,.12,0,.17,0v1.05s-2.79,0-2.79,0v3.05c0,.34-1.11.28-1.4.26v-7.5c1.39.02,2.79-.03,4.19,0Z"/>
        <path class="cls-15" d="M120.41,91.25c-.31-.56-.56-1.17-.87-1.74.44.06,1.21-.14,1.57.08.17.1,1.15,2.54,1.38,2.98.09.18-.09.33.36.25.17-.44,1.11-3.18,1.24-3.29.14-.12,1.23.04,1.55-.02-.08.87-1.78,2.83-2.09,4.01-.3,1.1-.15,2.16-.17,3.31-.29.09-1.34.05-1.57-.17-.2-.81.28-1.91.17-2.62-.01-.08-.09-.15-.17-.17-.05-.09-.13-.25-.17-.35-.39-.91-.76-1.44-1.22-2.27Z"/>
        <path class="cls-2" d="M118.49,89.51c.26,1.69-1.04,1.27-2.27,1.05v6.28c-.4.02-.83.02-1.22,0v-6.28s-2.09.17-2.09.17v-1.22c1.86-.05,3.73.07,5.58,0Z"/>
        <path class="cls-15" d="M58.3,89.33s0,.11,0,.17c.28,1.85-.21,4.35,0,6.28h3.14v1.05h-4.54v-7.33c0-.07,1.17-.04,1.4-.17Z"/>
        <path class="cls-6" d="M118.49,89.51c.29-.01.58,0,.87,0,.07-.06-.54-1.2.26-1.22.39.88,1.5.56,1.9.85.2.14.05,1.26.92,1.38.94.13,1.19-1.75,1.56-1.87.73-.23.69.85,1.63.5,0,.11,0,.23,0,.35-.32.06-1.41-.1-1.55.02s-1.07,2.85-1.24,3.29c-.45.08-.27-.07-.36-.25-.23-.44-1.21-2.88-1.38-2.98-.37-.22-1.13-.02-1.57-.08.31.57.56,1.18.87,1.74-1.1.14-.13-1.19-1.45-.87-.12.03-.2.34-.43.47-.49.26-.59.25-1.04.57-.19.13-.54.16-.66.35-.27.42.11,1.28.11,1.84,0,1.01-.56,2.15-.36,3.23-.12,0-.23,0-.35,0v-6.28c1.23.22,2.52.65,2.27-1.05-1.85.07-3.73-.05-5.58,0v1.22s2.09-.17,2.09-.17v6.28c-.11,0-.23,0-.35,0-.17-.23.18-3.53-.04-4.24-.07-.24-.38-.36-.45-.59-.15-.49.23-1.13-.47-.93-.05.01-.03.53-.66.36-.73-.19-.35-2.22-.29-2.79.68-.09,1.33.15,2,.19.47.02.95-.19,1.23-.17.27.02.45.33.69.33.25,0,.48-.4.86-.36.34.03.92.54.97.88Z"/>
        <path class="cls-6" d="M109.94,89.51c.05-.08-.06-.46,0-.52.04-.04.87.23,1.13,0,.17,0,.07.36.09.53h-1.22c-.22,1.53.87,6.78-1.82,6.45-.42-.05-1.32-.77-1.32-1.13v-5.32h-1.4v5.32c0,.08.35.79.45.95.69,1.15,1.92,1.57,3.22,1.41-.13.28.11.83-.91.66-.51-.09-2.75-1.54-2.9-1.99-.17-.51-.11-5.11-.03-5.91.12-1.25.7-.68,1.74-.78.1,1.1.67,2.16,1.05,3.23-.73.71-.25,1.01-.33,1.53-.03.21-.62.18-.54.55,1.72,1.62.95-.47,1.3-.97.14-.2.65-.12.77-.45.17-.47-.05-1.61.03-2.24.09-.72.53-1.05.69-1.32Z"/>
        <path class="cls-6" d="M58.3,89.33c-.22.14-1.4.1-1.4.17v7.33h4.54v-1.05h-3.14c-.21-1.93.28-4.43,0-6.28.35-.09.45.17.46.46.03.85-.33,2.25-.08,3.08.1.32.61.53.65.76s-.48.52-.32,1c.2.6,1.1.09,1.48.1,1.23.02,1.46,2.28,1.12,2.28h-4.01s-.21.51-.45.68c-.93.64-.4-.15-.43-.57-.03-.45-.31-.93-.34-1.42-.1-1.53.03-2.84.18-4.36.06-.61-.14-1.7.09-2.18.26-.53,1.47-.45,1.66,0Z"/>
        <path class="cls-6" d="M84.64,89.51c.05-.09-.11-.4.1-.54.79-.51,2.23-.26,3.07.03.14.05.12.25.27.32.21.09.57-.06.85.17.26.21.16.55.26.75.08.16.3.15.32.26.18.78-.12,2.2.21,3.08.12.31.73.17.49,1.04-.04.13-.3.1-.34.24-.46,1.78-.41,1-1.21,2.26-.16.26-.17.73-.2.76-.15.14-1.84-.45-2.2-.52-.65-.12-.8.43-1.64-.35,1.6.04,4.69.21,4.89-2.01.14-1.6-1.22-1.93-1.23-2.09,0-.17,1.77-1.14.7-2.62-.87-1.21-2.77-.95-4.02-.78l-.09-.17-.09.17h-.17Z"/>
        <path class="cls-6" d="M79.24,89.51c.12,0,.23,0,.35,0,.04.06-.13,1.29-.18,1.43-.09.26-1,.61-1.04.75-.23.74.78.11.53.96-.87-.02-1.75.01-2.62,0v-2.1s2.97,0,2.97,0v-1.05Z"/>
        <path class="cls-6" d="M97.55,96.83s-.25.05-.32-.03c-.29-.31,2.51-7.02,2.45-8.14,1.3-.59,1.21.24,1.58.45.18.1.5-.02.63.06.1.06.14.53.24.72.67,1.21.58,2.1.83,3.44-.64-.46-1-3.55-1.42-3.81-.27-.17-1.47.06-1.89-.03l-2.09,7.33c1.93.6,1.28-1.59,1.91-2.01.39-.26,1.8.03,2.34-.09l.63,2.1c-.41-.12-.53-1.45-.87-1.66-.25-.15-1.79-.17-1.94.02-.56.71-.21,2.45-1.96,1.99-.19-.05-.09-.33-.11-.35Z"/>
        <path class="cls-6" d="M91.62,96.83s-.24.05-.31-.03c-.22-.25-.12-5.95-.05-6.69.17-1.91.43-1.04,1.3-.94.52.06,3.11-.11,3.24,0,0,.12,0,.23,0,.35h-4.19s0,7.33,0,7.33h4.36v-1.05s-3.14,0-3.14,0v-2.27h2.79c.05-.25,0-1.05-.26-1.05h-2.53v-1.92s2.97,0,2.97,0c-.46.37-2.4,0-2.61.63-.06.18.08.84.19.91.28.18,2.5-.19,2.6.63.27,2.15-2.23.59-2.73,1.3-.21.3.02,1.58.1,1.58h2.7c.25,0,.39.99.22,1.19-.07.08-.28,0-.31.03-.02.02.08.3-.12.35-.28.08-4.05.09-4.21-.04-.08-.07,0-.29-.03-.31Z"/>
        <path class="cls-6" d="M111.16,89.68c.62-.11.26.57.35.93.04.15.38.06.37.37-.02.37-.32.62-.38,1.04-.19,1.33.37,2.91-.37,4.17-.2.34-1.49,1.75-1.37.46.27-.19.51-.19.78-.53.89-1.13.69-4.92.62-6.45Z"/>
        <path class="cls-6" d="M102.96,93.52c.46-.1.35.23.47.48.22.45,1.34,2.58.58,2.83-.51-1.09-.82-2.15-1.05-3.31Z"/>
        <path class="cls-6" d="M84.47,96.83c-.09-.15-.15-.13-.18-.42-.16-1.4-.13-4.71,0-6.14.03-.38.14-.43.19-.59v7.15Z"/>
        <path class="cls-6" d="M121.8,93.87c.04.07.11.12.17.17.11.71-.38,1.8-.17,2.62-.42-.41-.06-2.45-.17-3.14.04.1.12.26.17.35Z"/>
        <path class="cls-6" d="M123.37,96.83c.03-1.15-.12-2.22.17-3.31-.09.91.12,2,0,2.89-.02.19.08.34-.18.43Z"/>
        <path class="cls-6" d="M122.67,88.81c.04.32.01.51-.26.7h-.26s0-.7,0-.7h.52Z"/>
        <rect class="cls-6" x="73.31" y="97.53" width=".7" height=".35"/>
        <path class="cls-6" d="M113.25,91.95c.19.17-.36.71-.52.52-.26-.3.23-.78.52-.52Z"/>
        <rect class="cls-6" x="79.24" y="88.28" width=".35" height=".52"/>
        <rect class="cls-6" x="58.48" y="87.94" width=".35" height=".52"/>
        <path class="cls-6" d="M75.57,99.97c-.11-.52.45-.55.35,0-.12,0-.23,0-.35,0Z"/>
        <path class="cls-6" d="M68.77,88.11c.19.19-.16.54-.35.35s.16-.54.35-.35Z"/>
        <path class="cls-15" d="M18.88,89.51c1.2-.16,3.7-.71,2.96,1.22-.13.12-2.37-.97-2.76.3-.46,1.5,1.83,1.45,2.67,2.32,1.33,1.38.37,3.31-1.44,3.62-1.08.18-3.7.01-2.4-1.53,1.01.66,3.55.87,3.01-.92-.33-1.11-3.9-.99-3.2-3.62.22-.81.91-.99,1.14-1.39Z"/>
        <path class="cls-15" d="M29.69,89.51c-.08,2-.44.87-1.66.86-1.66,0-2.69,1.09-2.72,2.72-.05,2.5,2.08,3.36,4.2,2.53.6,1.44-.87,1.46-2.01,1.4-3.13-.14-4.39-3.55-2.91-6.06.97-1.65,3.39-1.84,5.1-1.45Z"/>
        <path class="cls-15" d="M66.96,90.49c2.32-2.65,6.08-.63,6.01,2.77-.08,4.05-5.33,5.62-6.69,1.44-.38-1.18-.38-2.48.13-3.63.18-.41.36-.37.55-.58ZM69.07,90.41c-3.05.59-1.63,7.09,1.26,5.28,2.26-1.42,1.11-5.74-1.26-5.28Z"/>
        <path class="cls-15" d="M41.95,97.13c-.08-.03-1.33-.82-1.43-.92-1.9-1.89-1.27-6.32,1.69-6.84,4.43-.77,5.44,5.28,2.48,7.19-.68.44-1.96.9-2.73.57ZM44.29,90.96c-2.74-2.9-5.14,4.04-1.86,4.92,2.67.72,3.22-3.48,1.86-4.92Z"/>
        <path class="cls-6" d="M85.86,93.52c3.12-.53,3.08,2.94,0,2.44v-2.44Z"/>
        <path class="cls-6" d="M85.86,92.47v-2.09c2.86-.39,2.87,2.44,0,2.09Z"/>
        <path class="cls-8" d="M84.99,89.51c-.06,0-.12,0-.17,0l.09-.17.09.17Z"/>
        <path class="cls-6" d="M52.66,90.78c2.33,1.96.04,6.92-2.48,4.66-2.16-1.95.1-6.65,2.48-4.66Z"/>
        <path class="cls-6" d="M101.56,93.87c-.61-.27-1.11.03-1.74,0-.06-1.09.64-2.05.7-3.14.27.03.26.26.34.45.14.34.83,2.56.71,2.69Z"/>
        <path class="cls-15" d="M37.54,96.83h-1.4v-3.31h-3.14v3.31h-1.4v-7.33h1.4v2.97h2.88s.26-.24.26-.26v-2.7c.4.04,1.22-.18,1.37.29l.02,7.04Z"/>
        <path class="cls-8" d="M121.98,94.04c-.06-.05-.14-.1-.17-.17.08.02.16.09.17.17Z"/>
        <path class="cls-6" d="M69.07,90.41c2.37-.46,3.52,3.86,1.26,5.28-2.89,1.81-4.3-4.68-1.26-5.28Z"/>
        <path class="cls-6" d="M44.29,90.96c1.36,1.43.81,5.63-1.86,4.92-3.28-.88-.87-7.81,1.86-4.92Z"/>
      </g>
    </g>
  </g>
</svg>